<svg xmlns="http://www.w3.org/2000/svg" viewBox="0 0 4.233 4.233">
  <path d="M1 0h2.233c.554 0 1 .446 1 1v2.233c0 .554-.446 1-1 1H1c-.554 0-1-.446-1-1V1c0-.554.446-1 1-1" style="fill:#5449d0"/>
  <path d="M2.12.617a1.5 1.5 0 0 0-.773.212l.305.518a.9.9 0 0 1 .468-.127.9.9 0 0 1 .461.127L2.893.83A1.5 1.5 0 0 0 2.12.617M.915 1.22a1.5 1.5 0 0 0-.298.9A1.504 1.504 0 0 0 2.12 3.617 1.504 1.504 0 0 0 3.617 2.12a1.5 1.5 0 0 0-.298-.9l-.369.553a.9.9 0 0 1 .07.347.9.9 0 0 1-.9.9.9.9 0 0 1-.9-.9.9.9 0 0 1 .063-.347Zm1.205.418a.48.48 0 0 0-.482.482.48.48 0 0 0 .482.475.48.48 0 0 0 .475-.475.48.48 0 0 0-.475-.482" style="fill:#fff"/>
</svg>
